<svg width="24" height="25" viewBox="0 0 24 25" fill="none" xmlns="http://www.w3.org/2000/svg">
<g clip-path="url(#clip0_500_7335)">
<path d="M0 15.56V0.5H23.99V24.5H22.45C23.66 24.22 24.33 22.96 23.69 21.83C23.55 21.59 23.34 21.39 23.19 21.16C22.6 20.25 22.19 19.31 21.77 18.32C21.53 18.09 21.12 18.29 21.15 18.61C21.17 18.79 21.55 19.62 21.65 19.85C21.71 19.99 22.08 20.66 22.07 20.72L20.3 21.87C19.67 20.67 19.16 19.41 18.74 18.12C18.5 17.37 18.29 15.8 17.57 15.46C16.45 14.93 15.82 15.95 15.55 16.87L13.99 15.2L14.5 13.74C16.24 14.24 18.09 13.72 19.62 12.85C19.67 12.88 19.67 12.92 19.69 12.97C19.88 13.51 19.95 14.44 20.09 15.05C20.22 15.61 20.43 16.67 20.65 17.16C20.84 17.57 21.39 17.45 21.31 16.88C21.23 16.31 20.93 15.53 20.79 14.92C20.62 14.15 20.42 13.27 20.31 12.5C20.12 11.11 20.23 10.12 19.77 8.69C19.39 7.52 18.69 6.14 17.68 5.4C19.19 3.57 17.9 0.71 15.55 0.56C13.2 0.41 11.47 3.01 12.73 5.11C12.78 5.2 13.17 5.67 13.14 5.7C12.39 5.86 11.6 6.33 10.86 6.49C10.82 6.49 10.75 6.52 10.75 6.48C11.81 3.26 7.67 0.99 5.54 3.64C4.07 2.72 2.28 4.13 2.93 5.78C3.15 6.33 3.73 6.79 4.32 6.87C4.46 6.89 4.61 6.86 4.74 6.87C4.81 6.87 4.82 6.84 4.81 6.94C4.79 7.08 4.64 7.4 4.57 7.54C4.2 8.35 3.59 9.24 3.03 9.93C2.83 10.18 1.86 11.16 1.82 11.35C1.77 11.63 2.09 11.87 2.37 11.71C2.53 11.62 3.21 10.82 3.38 10.62C4.27 9.57 4.85 8.62 5.41 7.36C5.43 7.32 5.38 7.28 5.48 7.3C5.82 7.7 6.21 8.06 6.71 8.24C6.57 8.82 6.67 9.42 6.79 10C6.95 10.73 7.26 11.42 7.63 12.07C6.4 14.08 5.26 16.25 4.59 18.52C4.43 19.06 4.26 19.64 4.24 20.2C2.29 19.97 0.95 18.45 0.73 16.53C0.6 15.35 0.88 14.33 1.34 13.26C1.45 13.01 1.72 12.78 1.47 12.5C1.11 12.09 0.81 12.71 0.68 12.98C0.35 13.72 0.06 14.74 0 15.56Z" fill="white"/>
<path d="M-3.80389e-05 15.5594C0.059962 14.7294 0.339962 13.7094 0.709962 12.9694C0.839962 12.6994 1.13996 12.0894 1.49996 12.4894C1.74996 12.7694 1.46996 12.9994 1.36996 13.2494C0.909962 14.3194 0.619962 15.3294 0.759962 16.5194C0.979962 18.4394 2.31996 19.9694 4.26996 20.1894C4.28996 19.6294 4.45996 19.0494 4.61996 18.5094C5.28996 16.2294 6.42996 14.0694 7.65996 12.0594C7.28996 11.4094 6.98996 10.7194 6.81996 9.98941C6.68996 9.40941 6.58996 8.80941 6.73996 8.22941C6.23996 8.04941 5.83996 7.68941 5.50996 7.28941C5.40996 7.26941 5.45996 7.30941 5.43996 7.34941C4.87996 8.60941 4.29996 9.54941 3.40996 10.6094C3.23996 10.8094 2.55996 11.6094 2.39996 11.6994C2.11996 11.8594 1.79996 11.6194 1.84996 11.3394C1.88996 11.1494 2.84996 10.1794 3.05996 9.91941C3.61996 9.22941 4.22996 8.33941 4.59996 7.52941C4.66996 7.37941 4.81996 7.06941 4.83996 6.92941C4.84996 6.83941 4.83996 6.86941 4.76996 6.85941C4.63996 6.83941 4.48996 6.86941 4.34996 6.85941C3.75996 6.77941 3.17996 6.32941 2.95996 5.76941C2.30996 4.11941 4.09996 2.70941 5.56996 3.62941C7.69996 0.979407 11.85 3.23941 10.78 6.46941C10.78 6.51941 10.85 6.48941 10.89 6.47941C11.62 6.31941 12.42 5.85941 13.17 5.68941C13.2 5.65941 12.81 5.18941 12.76 5.09941C11.48 2.98941 13.13 0.389407 15.56 0.539407C17.99 0.689407 19.2 3.54941 17.69 5.37941C18.7 6.11941 19.4 7.48941 19.78 8.66941C20.24 10.0894 20.13 11.0794 20.32 12.4794C20.43 13.2494 20.62 14.1394 20.8 14.8994C20.94 15.5094 21.23 16.2794 21.32 16.8594C21.41 17.4394 20.85 17.5494 20.66 17.1394C20.44 16.6594 20.22 15.5894 20.1 15.0294C19.96 14.4194 19.89 13.4894 19.7 12.9494C19.68 12.8994 19.68 12.8594 19.63 12.8294C18.1 13.6994 16.25 14.2194 14.51 13.7194L14 15.1794L15.56 16.8494C15.83 15.9294 16.46 14.9094 17.58 15.4394C18.3 15.7794 18.51 17.3594 18.75 18.0994C19.17 19.3894 19.68 20.6494 20.31 21.8494L22.08 20.6994C22.09 20.6394 21.72 19.9594 21.66 19.8294C21.56 19.5994 21.18 18.7694 21.16 18.5894C21.13 18.2694 21.54 18.0694 21.78 18.2994C22.2 19.2894 22.61 20.2294 23.2 21.1394C23.35 21.3694 23.57 21.5694 23.7 21.8094C24.34 22.9394 23.67 24.1994 22.46 24.4794H21.9C21.2 24.3494 20.81 23.8694 20.41 23.3294C19.31 21.8294 18.57 19.8694 18 18.1094C17.83 17.5894 17.7 16.7794 17.48 16.3294C17.3 15.9494 16.79 15.9294 16.57 16.2794C16.5 16.3894 16.09 17.4094 16.1 17.4894C16.66 18.3294 17.31 19.1894 17.57 20.1794C18.21 22.5794 16.51 23.6794 14.45 24.2194L12.77 24.4894H10.99L9.01996 24.2394C7.40996 23.8994 5.75996 23.8094 4.77996 22.2994C4.48996 21.8494 4.37996 21.3994 4.20996 20.8994C2.10996 20.6594 0.539962 19.1394 0.119962 17.0794C0.069962 16.8294 0.059962 16.5794 -3.80389e-05 16.3394C0.00996196 16.0794 -0.020038 15.8094 -3.80389e-05 15.5394V15.5594ZM16.28 1.43941C15.08 0.949407 13.61 1.48941 13.19 2.74941C14.15 2.50941 15.18 2.14941 16.04 1.64941C16.08 1.62941 16.34 1.50941 16.27 1.43941H16.28ZM16.92 1.95941C15.72 2.69941 14.4 3.21941 13.02 3.53941C13.02 4.25941 13.41 5.09941 14.04 5.46941C14.28 5.60941 14.56 5.65941 14.8 5.78941C14.92 5.78941 15.27 5.54941 15.43 5.48941C15.69 5.37941 16.07 5.27941 16.35 5.23941C16.51 5.21941 16.71 5.25941 16.86 5.23941C17.02 5.20941 17.35 4.65941 17.42 4.48941C17.77 3.64941 17.63 2.55941 16.92 1.96941V1.95941ZM9.63996 3.95941C8.94996 3.12941 7.64996 2.91941 6.73996 3.51941C7.64996 3.87941 8.65996 4.08941 9.63996 3.95941ZM5.13996 4.19941C4.15996 3.64941 3.07996 4.68941 3.68996 5.67941C3.92996 6.06941 4.51996 6.28941 4.93996 6.06941C4.93996 5.77941 4.88996 5.48941 4.90996 5.19941C4.93996 4.84941 5.07996 4.53941 5.13996 4.19941ZM6.08996 4.05941C5.09996 5.39941 5.75996 7.35941 7.40996 7.69941L9.74996 6.85941C10.21 6.25941 10.35 5.38941 10.06 4.68941C9.62996 4.66941 9.19996 4.73941 8.76996 4.71941C8.16996 4.68941 7.45996 4.53941 6.88996 4.35941C6.75996 4.31941 6.14996 4.03941 6.08996 4.06941V4.05941ZM17.67 6.26941C17.03 5.64941 16.06 5.96941 15.35 6.29941C15.61 6.72941 15.71 7.24941 15.58 7.74941C17.91 6.57941 19.54 9.93941 17.09 10.9694C16.24 11.3294 15.23 11.4894 14.32 11.6394L14.63 13.0494C16.31 13.5194 18.11 12.9794 19.53 12.0594C19.63 10.2394 19.07 8.22941 18.02 6.73941C17.93 6.60941 17.77 6.37941 17.67 6.27941V6.26941ZM13.48 6.30941C13.32 6.49941 14.06 7.89941 14.32 8.00941C14.58 8.11941 14.77 7.92941 14.86 7.70941C15.19 6.80941 14.38 6.02941 13.49 6.30941H13.48ZM12.77 6.57941L7.43996 8.51941C7.27996 8.78941 7.49996 9.80941 7.59996 10.1494C7.74996 10.7094 8.01996 11.2694 8.33996 11.7494L10.33 12.3294L10.58 11.6894C9.46996 11.2694 9.09996 9.85941 9.85996 8.92941C10.56 8.06941 11.69 8.31941 12.66 8.26941C12.92 8.25941 13.22 8.20941 13.48 8.17941C13.36 7.90941 13.17 7.68941 13.05 7.41941C12.93 7.14941 12.84 6.87941 12.78 6.58941L12.77 6.57941ZM12.21 11.0694C13.4 11.0694 14.65 10.9294 15.81 10.6294C16.67 10.4094 18.05 10.0194 17.48 8.81941C17.01 7.81941 16.04 8.38941 15.3 8.57941C14.68 8.73941 14.03 8.85941 13.4 8.91941C13.2 8.93941 12.11 8.95941 12.07 9.01941C12.26 9.68941 12.32 10.3894 12.21 11.0794V11.0694ZM11.51 11.1194C11.6 10.7794 11.56 9.20941 11.28 9.03941C11 8.86941 10.48 9.25941 10.33 9.49941C9.79996 10.3594 10.58 11.2494 11.51 11.1194ZM13.61 11.7294L11.28 11.8194L11 12.5994L13.4 14.6694L13.92 13.2894L13.61 11.7294ZM16.28 19.1194C16.28 19.1194 15.88 18.4594 15.82 18.3794C14.71 16.7994 12.99 15.1494 11.48 13.9194C11.21 13.6994 10.62 13.1794 10.33 13.0494C9.73996 12.7994 8.92996 12.7294 8.32996 12.4694L8.17996 12.5294L6.70996 15.2194C9.56996 17.1794 12.83 18.5794 16.28 19.0994V19.1194ZM6.36996 15.8894L5.28996 18.7294C5.28996 18.8894 5.62996 19.0494 5.76996 19.1294C8.93996 21.0394 12.67 21.9794 16.35 22.1194C16.49 22.1194 16.7 22.1594 16.79 22.0394C17.15 21.5794 16.97 20.3594 16.66 19.8894C13.94 19.5394 11.26 18.6494 8.84996 17.3694C7.99996 16.9194 7.19996 16.3894 6.36996 15.8994V15.8894ZM16 22.8194C12.12 22.7094 8.37996 21.4894 5.05996 19.5394C4.66996 21.1594 5.36996 22.5794 6.97996 23.0694C9.28996 23.7894 13.09 24.1594 15.34 23.1994L16.01 22.8194H16ZM22.5 21.3694C22.41 21.3094 20.87 22.3094 20.73 22.5194C20.71 22.5994 21.34 23.4194 21.45 23.5194C22.3 24.2894 23.59 23.3594 23.12 22.2694C22.99 21.9694 22.63 21.6894 22.5 21.3694Z" fill="#1A1A1A"/>
<path d="M11 24.4994H0V16.3594C0.07 16.5994 0.08 16.8494 0.12 17.0994C0.53 19.1594 2.11 20.6794 4.21 20.9194C4.38 21.4194 4.49 21.8694 4.78 22.3194C5.76 23.8294 7.41 23.9194 9.02 24.2594L10.99 24.5094L11 24.4994Z" fill="white"/>
<path d="M12.77 24.5004L14.45 24.2304C16.51 23.6904 18.21 22.5904 17.57 20.1904C17.31 19.2004 16.66 18.3404 16.1 17.5004C16.1 17.4204 16.51 16.4004 16.57 16.2904C16.79 15.9404 17.3 15.9604 17.48 16.3404C17.69 16.7904 17.83 17.6004 18 18.1204C18.56 19.8804 19.31 21.8404 20.41 23.3404C20.81 23.8804 21.19 24.3604 21.9 24.4904H12.78L12.77 24.5004Z" fill="white"/>
<path d="M6.37 15.8909C7.2 16.3809 8.00001 16.9109 8.85001 17.3609C11.27 18.6409 13.94 19.5409 16.66 19.8809C16.98 20.3509 17.16 21.5709 16.79 22.0309C16.7 22.1509 16.49 22.1109 16.35 22.1109C12.67 21.9709 8.94 21.0309 5.77 19.1209C5.63 19.0409 5.28 18.8809 5.29 18.7209L6.37 15.8809V15.8909Z" fill="white"/>
<path d="M16.28 19.1202C12.84 18.6002 9.56996 17.1902 6.70996 15.2402L8.17996 12.5502L8.32996 12.4902C8.92996 12.7502 9.73996 12.8202 10.33 13.0702C10.62 13.1902 11.2 13.7102 11.48 13.9402C12.98 15.1602 14.7 16.8102 15.82 18.4002C15.87 18.4802 16.31 19.1102 16.28 19.1402V19.1202Z" fill="white"/>
<path d="M16 22.8191L15.33 23.1991C13.08 24.1691 9.28001 23.7891 6.97001 23.0691C5.37001 22.5691 4.67001 21.1591 5.05001 19.5391C8.37001 21.4891 12.11 22.7091 15.99 22.8191H16Z" fill="white"/>
<path d="M17.6701 6.2709C17.7801 6.3709 17.9301 6.6009 18.0201 6.7309C19.0701 8.2209 19.6301 10.2309 19.5301 12.0509C18.1101 12.9709 16.3001 13.5109 14.6301 13.0409L14.3201 11.6309C15.2301 11.4809 16.2401 11.3209 17.0901 10.9609C19.5501 9.9309 17.9101 6.5809 15.5801 7.7409C15.7101 7.2409 15.6101 6.7209 15.3501 6.2909C16.0601 5.9609 17.0301 5.6409 17.6701 6.2609V6.2709Z" fill="white"/>
<path d="M12.7699 6.58031C12.8299 6.86031 12.9199 7.14031 13.0399 7.41031C13.1599 7.68031 13.3399 7.91031 13.4699 8.17031C13.2099 8.20031 12.9099 8.25031 12.6499 8.26031C11.6699 8.31031 10.5499 8.06031 9.84992 8.92031C9.08992 9.85031 9.44992 11.2603 10.5699 11.6803L10.3199 12.3203L8.32992 11.7403C8.01992 11.2603 7.74992 10.7003 7.58992 10.1403C7.49992 9.81031 7.26992 8.78031 7.42992 8.51031L12.7599 6.57031L12.7699 6.58031Z" fill="white"/>
<path d="M6.0899 4.06078C6.1499 4.03078 6.7599 4.31078 6.8899 4.35078C7.4699 4.53078 8.1699 4.68078 8.7699 4.71078C9.1999 4.73078 9.6299 4.66078 10.0599 4.68078C10.3499 5.39078 10.2099 6.25078 9.7499 6.85078L7.4099 7.69078C5.7599 7.35078 5.0999 5.39078 6.0899 4.05078V4.06078Z" fill="white"/>
<path d="M16.92 1.95922C17.64 2.54922 17.77 3.63922 17.42 4.47922C17.35 4.64922 17.02 5.19922 16.86 5.22922C16.71 5.25922 16.52 5.20922 16.35 5.22922C16.07 5.26922 15.7 5.36922 15.43 5.47922C15.27 5.54922 14.92 5.78922 14.8 5.77922C14.56 5.65922 14.28 5.59922 14.04 5.45922C13.41 5.08922 13.01 4.24922 13.02 3.52922C14.39 3.19922 15.72 2.68922 16.92 1.94922V1.95922Z" fill="white"/>
<path d="M12.2101 11.0706C12.3201 10.3806 12.2601 9.6806 12.0701 9.0106C12.1101 8.9606 13.2001 8.9306 13.4001 8.9106C14.0301 8.8506 14.6901 8.7306 15.3001 8.5706C16.0301 8.3806 17.0101 7.8106 17.4801 8.8106C18.0401 10.0106 16.6701 10.4006 15.8101 10.6206C14.6501 10.9206 13.4001 11.0506 12.2101 11.0606V11.0706Z" fill="white"/>
<path d="M13.61 11.7305L13.92 13.3005L13.41 14.6805L11 12.6005L11.28 11.8305L13.61 11.7305Z" fill="white"/>
<path d="M22.5001 21.3698C22.6301 21.6898 22.9901 21.9698 23.1201 22.2698C23.6001 23.3598 22.3001 24.2798 21.4501 23.5198C21.3401 23.4198 20.7201 22.5998 20.7301 22.5198C20.8601 22.3098 22.4101 21.3098 22.5001 21.3698Z" fill="white"/>
<path d="M5.13999 4.20051C5.08999 4.54051 4.93999 4.85051 4.90999 5.20051C4.88999 5.49051 4.92999 5.78051 4.93999 6.07051C4.50999 6.29051 3.92999 6.07051 3.68999 5.68051C3.07999 4.70051 4.15999 3.65051 5.13999 4.20051Z" fill="white"/>
<path d="M11.51 11.1197C10.58 11.2497 9.79997 10.3597 10.33 9.49968C10.48 9.25968 10.99 8.86968 11.28 9.03968C11.57 9.20968 11.6 10.7797 11.51 11.1197Z" fill="white"/>
<path d="M16.28 1.44096C16.35 1.51096 16.09 1.63096 16.05 1.65096C15.18 2.15096 14.16 2.51096 13.2 2.75096C13.61 1.49096 15.09 0.950962 16.29 1.44096H16.28Z" fill="white"/>
<path d="M13.4799 6.30957C14.3699 6.01957 15.1899 6.79957 14.8499 7.70957C14.7699 7.93957 14.5699 8.12957 14.3099 8.00957C14.0499 7.88957 13.3099 6.49957 13.4699 6.30957H13.4799Z" fill="white"/>
<path d="M9.63999 3.96096C8.65999 4.08096 7.64999 3.88096 6.73999 3.52096C7.64999 2.93096 8.94999 3.13096 9.63999 3.96096Z" fill="white"/>
</g>
<defs>
<clipPath id="clip0_500_7335">
<rect width="24" height="24" fill="white" transform="translate(0 0.5)"/>
</clipPath>
</defs>
</svg>
