<svg width="20" height="20" viewBox="0 0 20 20" fill="none" xmlns="http://www.w3.org/2000/svg">
<path fill-rule="evenodd" clip-rule="evenodd" d="M5.33569 1.38268C5.93132 -0.127563 8.06868 -0.127555 8.66431 1.38268L9.73633 4.10082C9.76571 4.17532 9.82468 4.23429 9.89918 4.26367L12.6173 5.33569C14.1276 5.93132 14.1276 8.06868 12.6173 8.66431L9.89918 9.73633C9.82468 9.76571 9.76571 9.82468 9.73633 9.89918L8.66431 12.6173C8.06868 14.1276 5.93132 14.1276 5.33569 12.6173L4.26367 9.89918C4.23429 9.82468 4.17532 9.76571 4.10082 9.73633L1.38268 8.66431C-0.127563 8.06868 -0.127555 5.93132 1.38268 5.33569L4.10082 4.26367C4.17532 4.23429 4.23429 4.17532 4.26367 4.10082L5.33569 1.38268ZM7.26891 1.93301C7.17267 1.68899 6.82733 1.689 6.73109 1.93301L5.65907 4.65116C5.47722 5.11224 5.11224 5.47722 4.65116 5.65907L1.93301 6.73109C1.68899 6.82733 1.689 7.17267 1.93301 7.26891L4.65116 8.34093C5.11224 8.52278 5.47722 8.88776 5.65907 9.34885L6.73109 12.067C6.82733 12.311 7.17267 12.311 7.26891 12.067L8.34093 9.34885C8.52278 8.88776 8.88776 8.52278 9.34885 8.34093L12.067 7.26891C12.311 7.17267 12.311 6.82733 12.067 6.73109L9.34885 5.65907C8.88776 5.47722 8.52278 5.11224 8.34093 4.65116L7.26891 1.93301ZM13.7908 11.073C14.2235 9.97568 15.7765 9.97568 16.2092 11.073L16.9779 13.0221L18.927 13.7908C20.0243 14.2235 20.0243 15.7765 18.927 16.2092L16.9779 16.9779L16.2092 18.927C15.7765 20.0243 14.2235 20.0243 13.7908 18.927L13.0221 16.9779L11.073 16.2092C9.97568 15.7765 9.97568 14.2235 11.073 13.7908L13.0221 13.0221L13.7908 11.073ZM15 12.0953L14.3856 13.6533C14.2534 13.9883 13.9883 14.2534 13.6533 14.3856L12.0953 15L13.6533 15.6144C13.9883 15.7466 14.2534 16.0117 14.3856 16.3467L15 17.9047L15.6144 16.3467C15.7466 16.0117 16.0117 15.7466 16.3467 15.6144L17.9047 15L16.3467 14.3856C16.0117 14.2534 15.7466 13.9883 15.6144 13.6533L15 12.0953Z" fill="#7B0B4E"/>
</svg>
