<svg width="26" height="30" viewBox="0 0 26 30" fill="none" xmlns="http://www.w3.org/2000/svg">
<path d="M21.4164 28.8C19.7831 30.3833 17.9997 30.1333 16.2831 29.3833C14.4664 28.6167 12.7997 28.5833 10.8831 29.3833C8.48308 30.4167 7.21641 30.1167 5.78308 28.8C-2.35026 20.4167 -1.15026 7.65 8.08308 7.18333C10.3331 7.3 11.8997 8.41667 13.2164 8.51667C15.1831 8.11667 17.0664 6.96667 19.1664 7.11667C21.6831 7.31667 23.5831 8.31667 24.8331 10.1167C19.6331 13.2333 20.8664 20.0833 25.6331 22C24.6831 24.5 23.4497 26.9833 21.3997 28.8167L21.4164 28.8ZM13.0497 7.08333C12.7997 3.36667 15.8164 0.3 19.2831 0C19.7664 4.3 15.3831 7.5 13.0497 7.08333Z" fill="#1A1A1A"/>
</svg>
