<svg width="40" height="40" viewBox="0 0 40 40" fill="none" xmlns="http://www.w3.org/2000/svg">
<path d="M39.6109 16.083H37.9999V16H19.9999V24H31.3029C29.6539 28.657 25.2229 32 19.9999 32C13.3729 32 7.99988 26.627 7.99988 20C7.99988 13.373 13.3729 8 19.9999 8C23.0589 8 25.8419 9.154 27.9609 11.039L33.6179 5.382C30.0459 2.053 25.2679 0 19.9999 0C8.95488 0 -0.00012207 8.955 -0.00012207 20C-0.00012207 31.045 8.95488 40 19.9999 40C31.0449 40 39.9999 31.045 39.9999 20C39.9999 18.659 39.8619 17.35 39.6109 16.083Z" fill="#FFC107"/>
<path d="M2.30652 10.691L8.87752 15.51C10.6555 11.108 14.9615 8 20.0005 8C23.0595 8 25.8425 9.154 27.9615 11.039L33.6185 5.382C30.0465 2.053 25.2685 0 20.0005 0C12.3185 0 5.65652 4.337 2.30652 10.691Z" fill="#FF3D00"/>
<path d="M20.0002 40.0002C25.1662 40.0002 29.8602 38.0232 33.4092 34.8082L27.2192 29.5702C25.1441 31.1493 22.6078 32.003 20.0002 32.0002C14.7982 32.0002 10.3812 28.6832 8.71719 24.0542L2.19519 29.0792C5.50519 35.5562 12.2272 40.0002 20.0002 40.0002Z" fill="#4CAF50"/>
<path d="M39.6109 16.083H37.9999V16H19.9999V24H31.3029C30.5141 26.2164 29.0932 28.1532 27.2159 29.571L27.2189 29.569L33.4089 34.807C32.9709 35.205 39.9999 30 39.9999 20C39.9999 18.659 39.8619 17.35 39.6109 16.083Z" fill="#1976D2"/>
</svg>
