<svg width="22" height="22" viewBox="0 0 22 22" fill="none" xmlns="http://www.w3.org/2000/svg">
<path fill-rule="evenodd" clip-rule="evenodd" d="M9.948 0.250001H12.052C12.9505 0.249972 13.6997 0.249947 14.2945 0.329913C14.9223 0.414318 15.4891 0.599989 15.9445 1.05546C16.4 1.51093 16.5857 2.07773 16.6701 2.70552C16.6928 2.87459 16.7091 3.05613 16.7207 3.25003C17.3101 3.25037 17.8084 3.25421 18.219 3.29599C18.6925 3.34415 19.1318 3.44887 19.5278 3.71346C19.8281 3.9141 20.0859 4.17191 20.2865 4.47218C20.5511 4.86818 20.6559 5.30755 20.704 5.78102C20.75 6.23336 20.75 6.79209 20.75 7.46168V20.25H21C21.4142 20.25 21.75 20.5858 21.75 21C21.75 21.4142 21.4142 21.75 21 21.75H1C0.585786 21.75 0.25 21.4142 0.25 21C0.25 20.5858 0.585786 20.25 1 20.25H1.25L1.25 7.46166C1.24998 6.79208 1.24997 6.23335 1.29598 5.78102C1.34415 5.30755 1.44886 4.86818 1.71346 4.47218C1.91409 4.17191 2.17191 3.9141 2.47218 3.71346C2.86818 3.44887 3.30755 3.34415 3.78102 3.29599C4.19165 3.25421 4.68995 3.25037 5.27927 3.25003C5.29091 3.05613 5.30718 2.87459 5.32991 2.70552C5.41432 2.07773 5.59999 1.51093 6.05546 1.05546C6.51093 0.599989 7.07773 0.414318 7.70552 0.329913C8.3003 0.249947 9.04952 0.249972 9.948 0.250001ZM5.25003 4.75011C4.66742 4.75075 4.25586 4.75542 3.93283 4.78828C3.57796 4.82438 3.41399 4.8882 3.30554 4.96067C3.16905 5.05186 3.05186 5.16905 2.96066 5.30554C2.8882 5.41399 2.82438 5.57796 2.78828 5.93283C2.75091 6.30024 2.75 6.78216 2.75 7.5V20.25H5.25V13.75H4.5C4.08579 13.75 3.75 13.4142 3.75 13C3.75 12.5858 4.08579 12.25 4.5 12.25H5.25V10.75H4.5C4.08579 10.75 3.75 10.4142 3.75 10C3.75 9.58579 4.08579 9.25 4.5 9.25H5.25V7.75H4.5C4.08579 7.75 3.75 7.41422 3.75 7C3.75 6.58579 4.08579 6.25 4.5 6.25H5.25L5.25 4.94801C5.25 4.88122 5.24999 4.81525 5.25003 4.75011ZM6.75 20.25H10.25V18C10.25 17.5858 10.5858 17.25 11 17.25C11.4142 17.25 11.75 17.5858 11.75 18V20.25H15.25V5C15.25 4.03599 15.2484 3.38843 15.1835 2.90539C15.1214 2.44393 15.0142 2.24644 14.8839 2.11612C14.7536 1.9858 14.5561 1.87858 14.0946 1.81654C13.6116 1.7516 12.964 1.75 12 1.75H10C9.03599 1.75 8.38843 1.7516 7.90539 1.81654C7.44393 1.87858 7.24643 1.9858 7.11612 2.11612C6.9858 2.24644 6.87858 2.44393 6.81654 2.90539C6.75159 3.38843 6.75 4.03599 6.75 5V20.25ZM16.75 7.75H17.5C17.9142 7.75 18.25 7.41422 18.25 7C18.25 6.58579 17.9142 6.25 17.5 6.25H16.75L16.75 4.94801C16.75 4.88122 16.75 4.81525 16.75 4.75011C17.3326 4.75075 17.7441 4.75542 18.0672 4.78828C18.422 4.82438 18.586 4.8882 18.6945 4.96067C18.8309 5.05186 18.9481 5.16905 19.0393 5.30554C19.1118 5.41399 19.1756 5.57796 19.2117 5.93283C19.2491 6.30024 19.25 6.78216 19.25 7.5V20.25H16.75V13.75H17.5C17.9142 13.75 18.25 13.4142 18.25 13C18.25 12.5858 17.9142 12.25 17.5 12.25H16.75V10.75H17.5C17.9142 10.75 18.25 10.4142 18.25 10C18.25 9.58579 17.9142 9.25 17.5 9.25H16.75V7.75ZM11 4.75C10.3096 4.75 9.75 5.30965 9.75 6C9.75 6.69036 10.3096 7.25 11 7.25C11.6904 7.25 12.25 6.69036 12.25 6C12.25 5.30965 11.6904 4.75 11 4.75ZM8.25 6C8.25 4.48122 9.48122 3.25 11 3.25C12.5188 3.25 13.75 4.48122 13.75 6C13.75 7.51879 12.5188 8.75 11 8.75C9.48122 8.75 8.25 7.51879 8.25 6ZM8.25 11C8.25 10.5858 8.58579 10.25 9 10.25H13C13.4142 10.25 13.75 10.5858 13.75 11C13.75 11.4142 13.4142 11.75 13 11.75H9C8.58579 11.75 8.25 11.4142 8.25 11ZM8.25 14C8.25 13.5858 8.58579 13.25 9 13.25H13C13.4142 13.25 13.75 13.5858 13.75 14C13.75 14.4142 13.4142 14.75 13 14.75H9C8.58579 14.75 8.25 14.4142 8.25 14Z" fill="#7B0B4E"/>
</svg>
